<svg width="32" height="32" viewBox="0 0 32 32" fill="none" xmlns="http://www.w3.org/2000/svg">
<circle cx="16" cy="16" r="16" fill="white" fill-opacity="0.22"/>
<path d="M15.8543 18.6809H16.1457C17.7489 18.6809 19.1091 17.6541 19.5878 16.2303C19.6573 16.023 19.4982 15.8094 19.2779 15.8094H18.3802C18.0944 15.8094 17.8635 15.5814 17.8635 15.3C17.8635 15.0177 18.0944 14.7889 18.3802 14.7889H19.2504C19.5386 14.7889 19.7719 14.5586 19.7719 14.2739C19.7719 13.9893 19.5386 13.7589 19.2504 13.7589H18.3802C18.0944 13.7589 17.8635 13.5301 17.8635 13.2487C17.8635 12.9665 18.0944 12.7377 18.3802 12.7377H19.2504C19.5386 12.7377 19.7719 12.5073 19.7719 12.2227C19.7719 11.9381 19.5386 11.7077 19.2504 11.7077H18.3802C18.0944 11.7077 17.8635 11.4789 17.8635 11.1967C17.8635 10.9153 18.0944 10.6865 18.3802 10.6865H19.3239C19.5402 10.6865 19.6952 10.4824 19.6371 10.2759C19.2084 8.77 17.8078 7.66666 16.1457 7.66666H15.8543C13.8514 7.66666 12.228 9.26905 12.228 11.2477V15.0999C12.228 17.0777 13.8514 18.6809 15.8543 18.6809Z" fill="white"/>
<path opacity="0.4" d="M22.276 14.188C21.8304 14.188 21.4688 14.5444 21.4688 14.9852C21.4688 17.9628 19.0155 20.3855 16.0004 20.3855C12.9844 20.3855 10.5312 17.9628 10.5312 14.9852C10.5312 14.5444 10.1695 14.188 9.72389 14.188C9.27828 14.188 8.91663 14.5444 8.91663 14.9852C8.91663 18.5727 11.6662 21.5343 15.1931 21.9321V23.5361C15.1931 23.9762 15.5539 24.3333 16.0004 24.3333C16.446 24.3333 16.8076 23.9762 16.8076 23.5361V21.9321C20.3338 21.5343 23.0833 18.5727 23.0833 14.9852C23.0833 14.5444 22.7216 14.188 22.276 14.188Z" fill="white"/>
</svg>
